<mxfile host="app.diagrams.net" agent="Mozilla/5.0 (Windows NT 10.0; Win64; x64) AppleWebKit/537.36 (KHTML, like Gecko) Chrome/132.0.0.0 Safari/537.36" version="24.7.17">
  <diagram id="6wMwrOdX8_U5YOTimrak" name="Page-1">
    <mxGraphModel dx="4284" dy="2612" grid="1" gridSize="10" guides="1" tooltips="1" connect="1" arrows="1" fold="1" page="1" pageScale="1" pageWidth="1169" pageHeight="826" math="0" shadow="0">
      <root>
        <mxCell id="0" />
        <mxCell id="1" parent="0" />
        <mxCell id="-dill5MbkQolZMqiE5xy-1" value="&lt;font style=&quot;font-size: 28px;&quot;&gt;Library Management System Flowcharts&lt;/font&gt;" style="text;html=1;align=center;verticalAlign=middle;resizable=0;points=[];autosize=1;strokeColor=none;fillColor=none;" parent="1" vertex="1">
          <mxGeometry x="1740" y="10" width="520" height="50" as="geometry" />
        </mxCell>
        <mxCell id="-dill5MbkQolZMqiE5xy-2" value="&lt;font style=&quot;font-size: 16px;&quot;&gt;Thabelo Libago&lt;/font&gt;" style="text;html=1;align=center;verticalAlign=middle;resizable=0;points=[];autosize=1;strokeColor=none;fillColor=none;" parent="1" vertex="1">
          <mxGeometry x="2121" y="60" width="130" height="30" as="geometry" />
        </mxCell>
        <mxCell id="7udmOQiE3G0HMblS83EQ-46" style="edgeStyle=orthogonalEdgeStyle;rounded=0;orthogonalLoop=1;jettySize=auto;html=1;exitX=0.5;exitY=1;exitDx=0;exitDy=0;entryX=0.5;entryY=0;entryDx=0;entryDy=0;strokeWidth=3;" parent="1" source="-dill5MbkQolZMqiE5xy-4" target="7udmOQiE3G0HMblS83EQ-42" edge="1">
          <mxGeometry relative="1" as="geometry" />
        </mxCell>
        <mxCell id="-dill5MbkQolZMqiE5xy-4" value="&lt;font style=&quot;font-size: 16px;&quot;&gt;Search for a book &amp;amp; borrow&lt;/font&gt;" style="rounded=1;whiteSpace=wrap;html=1;absoluteArcSize=1;arcSize=14;strokeWidth=2;fillColor=#fff2cc;strokeColor=#d6b656;" parent="1" vertex="1">
          <mxGeometry x="460" y="676" width="100" height="100" as="geometry" />
        </mxCell>
        <mxCell id="-dill5MbkQolZMqiE5xy-38" style="edgeStyle=orthogonalEdgeStyle;rounded=0;orthogonalLoop=1;jettySize=auto;html=1;exitX=1;exitY=0.5;exitDx=0;exitDy=0;entryX=0;entryY=0.5;entryDx=0;entryDy=0;strokeWidth=3;" parent="1" source="-dill5MbkQolZMqiE5xy-34" target="-dill5MbkQolZMqiE5xy-37" edge="1">
          <mxGeometry relative="1" as="geometry" />
        </mxCell>
        <mxCell id="-dill5MbkQolZMqiE5xy-34" value="System retrieves loan information" style="rounded=1;whiteSpace=wrap;html=1;absoluteArcSize=1;arcSize=14;strokeWidth=2;fillColor=#fff2cc;strokeColor=#d6b656;" parent="1" vertex="1">
          <mxGeometry x="1830" y="1610" width="100" height="100" as="geometry" />
        </mxCell>
        <mxCell id="-dill5MbkQolZMqiE5xy-42" value="" style="edgeStyle=orthogonalEdgeStyle;rounded=0;orthogonalLoop=1;jettySize=auto;html=1;strokeWidth=3;" parent="1" source="-dill5MbkQolZMqiE5xy-37" target="-dill5MbkQolZMqiE5xy-39" edge="1">
          <mxGeometry relative="1" as="geometry" />
        </mxCell>
        <mxCell id="-dill5MbkQolZMqiE5xy-43" value="&lt;font style=&quot;font-size: 16px;&quot;&gt;Yes&lt;/font&gt;" style="edgeLabel;html=1;align=center;verticalAlign=middle;resizable=0;points=[];" parent="-dill5MbkQolZMqiE5xy-42" vertex="1" connectable="0">
          <mxGeometry x="-0.1473" y="1" relative="1" as="geometry">
            <mxPoint as="offset" />
          </mxGeometry>
        </mxCell>
        <mxCell id="-dill5MbkQolZMqiE5xy-48" value="" style="edgeStyle=orthogonalEdgeStyle;rounded=0;orthogonalLoop=1;jettySize=auto;html=1;strokeWidth=3;" parent="1" source="-dill5MbkQolZMqiE5xy-37" target="-dill5MbkQolZMqiE5xy-46" edge="1">
          <mxGeometry relative="1" as="geometry" />
        </mxCell>
        <mxCell id="-dill5MbkQolZMqiE5xy-50" value="&lt;font style=&quot;font-size: 16px;&quot;&gt;No&lt;/font&gt;" style="edgeLabel;html=1;align=center;verticalAlign=middle;resizable=0;points=[];" parent="-dill5MbkQolZMqiE5xy-48" vertex="1" connectable="0">
          <mxGeometry x="-0.241" y="-3" relative="1" as="geometry">
            <mxPoint as="offset" />
          </mxGeometry>
        </mxCell>
        <mxCell id="-dill5MbkQolZMqiE5xy-37" value="&lt;font style=&quot;font-size: 16px;&quot;&gt;Is the slip available?&lt;/font&gt;" style="rhombus;whiteSpace=wrap;html=1;fillColor=#e1d5e7;strokeColor=#9673a6;" parent="1" vertex="1">
          <mxGeometry x="2090" y="1595" width="130" height="130" as="geometry" />
        </mxCell>
        <mxCell id="-dill5MbkQolZMqiE5xy-47" value="" style="edgeStyle=orthogonalEdgeStyle;rounded=0;orthogonalLoop=1;jettySize=auto;html=1;strokeWidth=3;" parent="1" source="-dill5MbkQolZMqiE5xy-39" target="-dill5MbkQolZMqiE5xy-44" edge="1">
          <mxGeometry relative="1" as="geometry" />
        </mxCell>
        <mxCell id="-dill5MbkQolZMqiE5xy-39" value="System updates book status to available" style="rounded=1;whiteSpace=wrap;html=1;absoluteArcSize=1;arcSize=14;strokeWidth=2;fillColor=#fff2cc;strokeColor=#d6b656;" parent="1" vertex="1">
          <mxGeometry x="2105" y="1430" width="100" height="100" as="geometry" />
        </mxCell>
        <mxCell id="-dill5MbkQolZMqiE5xy-44" value="System records return date and time" style="rounded=1;whiteSpace=wrap;html=1;absoluteArcSize=1;arcSize=14;strokeWidth=2;fillColor=#fff2cc;strokeColor=#d6b656;" parent="1" vertex="1">
          <mxGeometry x="2470" y="1430" width="100" height="100" as="geometry" />
        </mxCell>
        <mxCell id="-dill5MbkQolZMqiE5xy-46" value="Notify librarian and provide error message" style="rounded=1;whiteSpace=wrap;html=1;absoluteArcSize=1;arcSize=14;strokeWidth=2;fillColor=#fff2cc;strokeColor=#d6b656;" parent="1" vertex="1">
          <mxGeometry x="2105" y="1790" width="100" height="100" as="geometry" />
        </mxCell>
        <mxCell id="-dill5MbkQolZMqiE5xy-69" value="" style="edgeStyle=orthogonalEdgeStyle;rounded=0;orthogonalLoop=1;jettySize=auto;html=1;strokeWidth=3;" parent="1" source="-dill5MbkQolZMqiE5xy-55" target="-dill5MbkQolZMqiE5xy-68" edge="1">
          <mxGeometry relative="1" as="geometry" />
        </mxCell>
        <mxCell id="-dill5MbkQolZMqiE5xy-55" value="Manage members" style="rounded=1;whiteSpace=wrap;html=1;absoluteArcSize=1;arcSize=14;strokeWidth=2;fillColor=#fff2cc;strokeColor=#d6b656;" parent="1" vertex="1">
          <mxGeometry x="150" y="2320" width="100" height="100" as="geometry" />
        </mxCell>
        <mxCell id="-dill5MbkQolZMqiE5xy-80" style="edgeStyle=orthogonalEdgeStyle;rounded=0;orthogonalLoop=1;jettySize=auto;html=1;exitX=1;exitY=0.5;exitDx=0;exitDy=0;strokeWidth=3;" parent="1" source="-dill5MbkQolZMqiE5xy-64" target="-dill5MbkQolZMqiE5xy-75" edge="1">
          <mxGeometry relative="1" as="geometry" />
        </mxCell>
        <mxCell id="-dill5MbkQolZMqiE5xy-64" value="Add new member" style="rounded=1;whiteSpace=wrap;html=1;absoluteArcSize=1;arcSize=14;strokeWidth=2;fillColor=#fff2cc;strokeColor=#d6b656;" parent="1" vertex="1">
          <mxGeometry x="510" y="2050" width="100" height="100" as="geometry" />
        </mxCell>
        <mxCell id="CKTM6LFui64msya6-bPx-4" value="" style="edgeStyle=orthogonalEdgeStyle;rounded=0;orthogonalLoop=1;jettySize=auto;html=1;strokeWidth=3;" parent="1" source="-dill5MbkQolZMqiE5xy-65" target="-dill5MbkQolZMqiE5xy-77" edge="1">
          <mxGeometry relative="1" as="geometry" />
        </mxCell>
        <mxCell id="-dill5MbkQolZMqiE5xy-65" value="Edit existing member" style="rounded=1;whiteSpace=wrap;html=1;absoluteArcSize=1;arcSize=14;strokeWidth=2;fillColor=#fff2cc;strokeColor=#d6b656;" parent="1" vertex="1">
          <mxGeometry x="510" y="2320" width="100" height="100" as="geometry" />
        </mxCell>
        <mxCell id="CKTM6LFui64msya6-bPx-3" value="" style="edgeStyle=orthogonalEdgeStyle;rounded=0;orthogonalLoop=1;jettySize=auto;html=1;strokeWidth=3;" parent="1" source="-dill5MbkQolZMqiE5xy-66" target="-dill5MbkQolZMqiE5xy-78" edge="1">
          <mxGeometry relative="1" as="geometry" />
        </mxCell>
        <mxCell id="-dill5MbkQolZMqiE5xy-66" value="Delete member" style="rounded=1;whiteSpace=wrap;html=1;absoluteArcSize=1;arcSize=14;strokeWidth=2;fillColor=#fff2cc;strokeColor=#d6b656;" parent="1" vertex="1">
          <mxGeometry x="510" y="2580" width="100" height="100" as="geometry" />
        </mxCell>
        <mxCell id="-dill5MbkQolZMqiE5xy-70" style="edgeStyle=orthogonalEdgeStyle;rounded=0;orthogonalLoop=1;jettySize=auto;html=1;exitX=0.5;exitY=0;exitDx=0;exitDy=0;exitPerimeter=0;entryX=0;entryY=0.5;entryDx=0;entryDy=0;strokeWidth=3;" parent="1" source="-dill5MbkQolZMqiE5xy-68" target="-dill5MbkQolZMqiE5xy-64" edge="1">
          <mxGeometry relative="1" as="geometry" />
        </mxCell>
        <mxCell id="CKTM6LFui64msya6-bPx-1" value="" style="edgeStyle=orthogonalEdgeStyle;rounded=0;orthogonalLoop=1;jettySize=auto;html=1;strokeWidth=3;" parent="1" source="-dill5MbkQolZMqiE5xy-68" target="-dill5MbkQolZMqiE5xy-65" edge="1">
          <mxGeometry relative="1" as="geometry" />
        </mxCell>
        <mxCell id="CKTM6LFui64msya6-bPx-2" style="edgeStyle=orthogonalEdgeStyle;rounded=0;orthogonalLoop=1;jettySize=auto;html=1;exitX=0.5;exitY=1;exitDx=0;exitDy=0;exitPerimeter=0;entryX=0;entryY=0.5;entryDx=0;entryDy=0;strokeWidth=3;" parent="1" source="-dill5MbkQolZMqiE5xy-68" target="-dill5MbkQolZMqiE5xy-66" edge="1">
          <mxGeometry relative="1" as="geometry" />
        </mxCell>
        <mxCell id="-dill5MbkQolZMqiE5xy-68" value="&lt;span style=&quot;font-size: 22px;&quot;&gt;O&lt;/span&gt;" style="strokeWidth=2;html=1;shape=mxgraph.flowchart.decision;whiteSpace=wrap;" parent="1" vertex="1">
          <mxGeometry x="380" y="2345" width="50" height="50" as="geometry" />
        </mxCell>
        <mxCell id="-dill5MbkQolZMqiE5xy-85" style="edgeStyle=orthogonalEdgeStyle;rounded=0;orthogonalLoop=1;jettySize=auto;html=1;exitX=1;exitY=0.5;exitDx=0;exitDy=0;strokeWidth=3;" parent="1" source="-dill5MbkQolZMqiE5xy-75" target="-dill5MbkQolZMqiE5xy-84" edge="1">
          <mxGeometry relative="1" as="geometry" />
        </mxCell>
        <mxCell id="-dill5MbkQolZMqiE5xy-75" value="Collect member information, create record" style="shape=parallelogram;perimeter=parallelogramPerimeter;whiteSpace=wrap;html=1;fixedSize=1;strokeWidth=2;" parent="1" vertex="1">
          <mxGeometry x="730" y="2050" width="130" height="100" as="geometry" />
        </mxCell>
        <mxCell id="CKTM6LFui64msya6-bPx-5" value="" style="edgeStyle=orthogonalEdgeStyle;rounded=0;orthogonalLoop=1;jettySize=auto;html=1;strokeWidth=3;" parent="1" source="-dill5MbkQolZMqiE5xy-77" target="-dill5MbkQolZMqiE5xy-84" edge="1">
          <mxGeometry relative="1" as="geometry" />
        </mxCell>
        <mxCell id="-dill5MbkQolZMqiE5xy-77" value="Search existing member modify -" style="shape=parallelogram;perimeter=parallelogramPerimeter;whiteSpace=wrap;html=1;fixedSize=1;strokeWidth=2;" parent="1" vertex="1">
          <mxGeometry x="705" y="2320" width="150" height="100" as="geometry" />
        </mxCell>
        <mxCell id="-dill5MbkQolZMqiE5xy-78" value="&lt;br&gt; Search by ID, delete record&amp;nbsp;&lt;div&gt;&lt;br/&gt;&lt;/div&gt;" style="shape=parallelogram;perimeter=parallelogramPerimeter;whiteSpace=wrap;html=1;fixedSize=1;strokeWidth=2;" parent="1" vertex="1">
          <mxGeometry x="710" y="2580" width="150" height="100" as="geometry" />
        </mxCell>
        <mxCell id="CKTM6LFui64msya6-bPx-6" value="" style="edgeStyle=orthogonalEdgeStyle;rounded=0;orthogonalLoop=1;jettySize=auto;html=1;strokeWidth=3;" parent="1" source="-dill5MbkQolZMqiE5xy-84" target="-dill5MbkQolZMqiE5xy-91" edge="1">
          <mxGeometry relative="1" as="geometry" />
        </mxCell>
        <mxCell id="-dill5MbkQolZMqiE5xy-84" value="&lt;span style=&quot;font-size: 22px;&quot;&gt;O&lt;/span&gt;" style="strokeWidth=2;html=1;shape=mxgraph.flowchart.decision;whiteSpace=wrap;" parent="1" vertex="1">
          <mxGeometry x="970" y="2345" width="50" height="50" as="geometry" />
        </mxCell>
        <mxCell id="-dill5MbkQolZMqiE5xy-88" style="edgeStyle=orthogonalEdgeStyle;rounded=0;orthogonalLoop=1;jettySize=auto;html=1;exitX=1;exitY=0.5;exitDx=0;exitDy=0;entryX=0.5;entryY=1;entryDx=0;entryDy=0;entryPerimeter=0;strokeWidth=3;" parent="1" source="-dill5MbkQolZMqiE5xy-78" target="-dill5MbkQolZMqiE5xy-84" edge="1">
          <mxGeometry relative="1" as="geometry" />
        </mxCell>
        <mxCell id="-dill5MbkQolZMqiE5xy-91" value="Librarian returns to main menu" style="rounded=1;whiteSpace=wrap;html=1;absoluteArcSize=1;arcSize=14;strokeWidth=2;fillColor=#fff2cc;strokeColor=#d6b656;" parent="1" vertex="1">
          <mxGeometry x="1110" y="2320" width="100" height="100" as="geometry" />
        </mxCell>
        <mxCell id="-dill5MbkQolZMqiE5xy-114" style="edgeStyle=orthogonalEdgeStyle;rounded=0;orthogonalLoop=1;jettySize=auto;html=1;exitX=1;exitY=0.5;exitDx=0;exitDy=0;strokeWidth=3;" parent="1" source="-dill5MbkQolZMqiE5xy-99" target="-dill5MbkQolZMqiE5xy-101" edge="1">
          <mxGeometry relative="1" as="geometry" />
        </mxCell>
        <mxCell id="-dill5MbkQolZMqiE5xy-99" value="Librarian searches for a book" style="rounded=1;whiteSpace=wrap;html=1;absoluteArcSize=1;arcSize=14;strokeWidth=2;fillColor=#fff2cc;strokeColor=#d6b656;" parent="1" vertex="1">
          <mxGeometry x="220" y="1564" width="100" height="100" as="geometry" />
        </mxCell>
        <mxCell id="LnAWGriIQRCtSxXzHAF4-1" value="" style="edgeStyle=orthogonalEdgeStyle;rounded=0;orthogonalLoop=1;jettySize=auto;html=1;strokeWidth=3;" parent="1" source="-dill5MbkQolZMqiE5xy-101" target="-dill5MbkQolZMqiE5xy-106" edge="1">
          <mxGeometry relative="1" as="geometry" />
        </mxCell>
        <mxCell id="-dill5MbkQolZMqiE5xy-101" value="System allows search by title, author, ISBN, or Genre" style="rounded=1;whiteSpace=wrap;html=1;absoluteArcSize=1;arcSize=14;strokeWidth=2;fillColor=#fff2cc;strokeColor=#d6b656;" parent="1" vertex="1">
          <mxGeometry x="395" y="1564" width="100" height="100" as="geometry" />
        </mxCell>
        <mxCell id="V7tIzBUUKWDhLe9ezu4e-1" value="" style="edgeStyle=orthogonalEdgeStyle;rounded=0;orthogonalLoop=1;jettySize=auto;html=1;strokeWidth=3;" parent="1" source="-dill5MbkQolZMqiE5xy-106" target="LnAWGriIQRCtSxXzHAF4-6" edge="1">
          <mxGeometry relative="1" as="geometry" />
        </mxCell>
        <mxCell id="-dill5MbkQolZMqiE5xy-106" value="&lt;div&gt;Display search results&lt;/div&gt;" style="shape=parallelogram;perimeter=parallelogramPerimeter;whiteSpace=wrap;html=1;fixedSize=1;strokeWidth=2;" parent="1" vertex="1">
          <mxGeometry x="555" y="1564" width="150" height="100" as="geometry" />
        </mxCell>
        <mxCell id="7udmOQiE3G0HMblS83EQ-21" style="edgeStyle=orthogonalEdgeStyle;rounded=0;orthogonalLoop=1;jettySize=auto;html=1;exitX=0.5;exitY=1;exitDx=0;exitDy=0;exitPerimeter=0;entryX=0.5;entryY=0;entryDx=0;entryDy=0;" parent="1" source="7udmOQiE3G0HMblS83EQ-1" target="7udmOQiE3G0HMblS83EQ-2" edge="1">
          <mxGeometry relative="1" as="geometry" />
        </mxCell>
        <mxCell id="7udmOQiE3G0HMblS83EQ-1" value="&lt;font style=&quot;font-size: 16px;&quot;&gt;Start&lt;/font&gt;" style="strokeWidth=2;html=1;shape=mxgraph.flowchart.start_1;whiteSpace=wrap;fillColor=#dae8fc;strokeColor=#6c8ebf;" parent="1" vertex="1">
          <mxGeometry x="1110" y="210" width="100" height="60" as="geometry" />
        </mxCell>
        <mxCell id="7udmOQiE3G0HMblS83EQ-2" value="&lt;span style=&quot;font-size: 16px;&quot;&gt;Librarian logs in&lt;/span&gt;&lt;div&gt;&lt;span style=&quot;font-size: 16px;&quot;&gt;&lt;br&gt;&lt;/span&gt;&lt;/div&gt;" style="rounded=1;whiteSpace=wrap;html=1;absoluteArcSize=1;arcSize=14;strokeWidth=2;fillColor=#fff2cc;strokeColor=#d6b656;" parent="1" vertex="1">
          <mxGeometry x="1110" y="360" width="100" height="100" as="geometry" />
        </mxCell>
        <mxCell id="7udmOQiE3G0HMblS83EQ-6" style="edgeStyle=orthogonalEdgeStyle;rounded=0;orthogonalLoop=1;jettySize=auto;html=1;exitX=0;exitY=0.5;exitDx=0;exitDy=0;exitPerimeter=0;entryX=0.5;entryY=0;entryDx=0;entryDy=0;strokeWidth=3;" parent="1" source="7udmOQiE3G0HMblS83EQ-3" target="-dill5MbkQolZMqiE5xy-4" edge="1">
          <mxGeometry relative="1" as="geometry" />
        </mxCell>
        <mxCell id="GMf_6AteKNeZDSb7Da4l-2" style="edgeStyle=orthogonalEdgeStyle;rounded=0;orthogonalLoop=1;jettySize=auto;html=1;exitX=0.5;exitY=1;exitDx=0;exitDy=0;exitPerimeter=0;entryX=0.5;entryY=0;entryDx=0;entryDy=0;strokeWidth=3;" parent="1" source="7udmOQiE3G0HMblS83EQ-3" target="7udmOQiE3G0HMblS83EQ-15" edge="1">
          <mxGeometry relative="1" as="geometry" />
        </mxCell>
        <mxCell id="GMf_6AteKNeZDSb7Da4l-3" style="edgeStyle=orthogonalEdgeStyle;rounded=0;orthogonalLoop=1;jettySize=auto;html=1;exitX=0.5;exitY=1;exitDx=0;exitDy=0;exitPerimeter=0;entryX=0.5;entryY=0;entryDx=0;entryDy=0;strokeWidth=3;" parent="1" source="7udmOQiE3G0HMblS83EQ-3" target="7udmOQiE3G0HMblS83EQ-16" edge="1">
          <mxGeometry relative="1" as="geometry" />
        </mxCell>
        <mxCell id="CvKniltinrUZ1ZfXwwQX-2" style="edgeStyle=orthogonalEdgeStyle;rounded=0;orthogonalLoop=1;jettySize=auto;html=1;exitX=1;exitY=0.5;exitDx=0;exitDy=0;exitPerimeter=0;entryX=0.5;entryY=0;entryDx=0;entryDy=0;strokeWidth=3;" edge="1" parent="1" source="7udmOQiE3G0HMblS83EQ-3" target="CvKniltinrUZ1ZfXwwQX-1">
          <mxGeometry relative="1" as="geometry" />
        </mxCell>
        <mxCell id="7udmOQiE3G0HMblS83EQ-3" value="&lt;span style=&quot;font-size: 22px;&quot;&gt;O&lt;/span&gt;" style="strokeWidth=2;html=1;shape=mxgraph.flowchart.decision;whiteSpace=wrap;" parent="1" vertex="1">
          <mxGeometry x="1135" y="530" width="50" height="50" as="geometry" />
        </mxCell>
        <mxCell id="GMf_6AteKNeZDSb7Da4l-4" style="edgeStyle=orthogonalEdgeStyle;rounded=0;orthogonalLoop=1;jettySize=auto;html=1;exitX=0.5;exitY=1;exitDx=0;exitDy=0;entryX=0.5;entryY=0;entryDx=0;entryDy=0;strokeWidth=3;" parent="1" source="7udmOQiE3G0HMblS83EQ-15" target="7udmOQiE3G0HMblS83EQ-43" edge="1">
          <mxGeometry relative="1" as="geometry" />
        </mxCell>
        <mxCell id="7udmOQiE3G0HMblS83EQ-15" value="&lt;span style=&quot;font-size: 16px;&quot;&gt;Return book&lt;/span&gt;" style="rounded=1;whiteSpace=wrap;html=1;absoluteArcSize=1;arcSize=14;strokeWidth=2;fillColor=#fff2cc;strokeColor=#d6b656;" parent="1" vertex="1">
          <mxGeometry x="800" y="690" width="100" height="100" as="geometry" />
        </mxCell>
        <mxCell id="GMf_6AteKNeZDSb7Da4l-6" style="edgeStyle=orthogonalEdgeStyle;rounded=0;orthogonalLoop=1;jettySize=auto;html=1;exitX=0.5;exitY=1;exitDx=0;exitDy=0;entryX=0.5;entryY=0;entryDx=0;entryDy=0;strokeWidth=3;" parent="1" source="7udmOQiE3G0HMblS83EQ-16" target="7udmOQiE3G0HMblS83EQ-45" edge="1">
          <mxGeometry relative="1" as="geometry" />
        </mxCell>
        <mxCell id="7udmOQiE3G0HMblS83EQ-16" value="&lt;span style=&quot;font-size: 16px;&quot;&gt;Manage members&lt;/span&gt;" style="rounded=1;whiteSpace=wrap;html=1;absoluteArcSize=1;arcSize=14;strokeWidth=2;fillColor=#fff2cc;strokeColor=#d6b656;" parent="1" vertex="1">
          <mxGeometry x="1350" y="690" width="100" height="100" as="geometry" />
        </mxCell>
        <mxCell id="7udmOQiE3G0HMblS83EQ-22" style="edgeStyle=orthogonalEdgeStyle;rounded=0;orthogonalLoop=1;jettySize=auto;html=1;exitX=0.5;exitY=1;exitDx=0;exitDy=0;entryX=0.5;entryY=0;entryDx=0;entryDy=0;entryPerimeter=0;" parent="1" source="7udmOQiE3G0HMblS83EQ-2" target="7udmOQiE3G0HMblS83EQ-3" edge="1">
          <mxGeometry relative="1" as="geometry" />
        </mxCell>
        <mxCell id="7udmOQiE3G0HMblS83EQ-66" style="edgeStyle=orthogonalEdgeStyle;rounded=0;orthogonalLoop=1;jettySize=auto;html=1;exitX=0.5;exitY=1;exitDx=0;exitDy=0;exitPerimeter=0;strokeWidth=3;" parent="1" source="7udmOQiE3G0HMblS83EQ-32" target="7udmOQiE3G0HMblS83EQ-65" edge="1">
          <mxGeometry relative="1" as="geometry" />
        </mxCell>
        <mxCell id="7udmOQiE3G0HMblS83EQ-32" value="&lt;span style=&quot;font-size: 22px;&quot;&gt;O&lt;/span&gt;" style="strokeWidth=2;html=1;shape=mxgraph.flowchart.decision;whiteSpace=wrap;" parent="1" vertex="1">
          <mxGeometry x="1135" y="1090" width="50" height="50" as="geometry" />
        </mxCell>
        <mxCell id="7udmOQiE3G0HMblS83EQ-42" value="1" style="verticalLabelPosition=middle;verticalAlign=middle;html=1;shape=offPageConnector;rounded=0;size=0.49999999999999994;strokeWidth=2;labelPosition=center;align=center;" parent="1" vertex="1">
          <mxGeometry x="480" y="870" width="60" height="60" as="geometry" />
        </mxCell>
        <mxCell id="7udmOQiE3G0HMblS83EQ-43" value="2" style="verticalLabelPosition=middle;verticalAlign=middle;html=1;shape=offPageConnector;rounded=0;size=0.49999999999999994;strokeWidth=2;labelPosition=center;align=center;" parent="1" vertex="1">
          <mxGeometry x="820" y="890" width="60" height="60" as="geometry" />
        </mxCell>
        <mxCell id="7udmOQiE3G0HMblS83EQ-45" value="3&lt;div&gt;&lt;br&gt;&lt;/div&gt;" style="verticalLabelPosition=middle;verticalAlign=middle;html=1;shape=offPageConnector;rounded=0;size=0.49999999999999994;strokeWidth=2;labelPosition=center;align=center;" parent="1" vertex="1">
          <mxGeometry x="1370" y="870" width="60" height="60" as="geometry" />
        </mxCell>
        <mxCell id="7udmOQiE3G0HMblS83EQ-50" style="edgeStyle=orthogonalEdgeStyle;rounded=0;orthogonalLoop=1;jettySize=auto;html=1;exitX=0.5;exitY=1;exitDx=0;exitDy=0;entryX=0;entryY=0.5;entryDx=0;entryDy=0;entryPerimeter=0;strokeWidth=3;" parent="1" source="7udmOQiE3G0HMblS83EQ-42" target="7udmOQiE3G0HMblS83EQ-32" edge="1">
          <mxGeometry relative="1" as="geometry" />
        </mxCell>
        <mxCell id="7udmOQiE3G0HMblS83EQ-57" value="" style="edgeStyle=orthogonalEdgeStyle;rounded=0;orthogonalLoop=1;jettySize=auto;html=1;" parent="1" source="7udmOQiE3G0HMblS83EQ-54" target="-dill5MbkQolZMqiE5xy-99" edge="1">
          <mxGeometry relative="1" as="geometry" />
        </mxCell>
        <mxCell id="7udmOQiE3G0HMblS83EQ-54" value="1" style="verticalLabelPosition=middle;verticalAlign=middle;html=1;shape=offPageConnector;rounded=0;size=0.49999999999999994;strokeWidth=2;labelPosition=center;align=center;" parent="1" vertex="1">
          <mxGeometry x="240" y="1385" width="60" height="60" as="geometry" />
        </mxCell>
        <mxCell id="7udmOQiE3G0HMblS83EQ-59" style="edgeStyle=orthogonalEdgeStyle;rounded=0;orthogonalLoop=1;jettySize=auto;html=1;exitX=0.5;exitY=1;exitDx=0;exitDy=0;entryX=0.5;entryY=0;entryDx=0;entryDy=0;" parent="1" source="7udmOQiE3G0HMblS83EQ-58" target="-dill5MbkQolZMqiE5xy-55" edge="1">
          <mxGeometry relative="1" as="geometry" />
        </mxCell>
        <mxCell id="7udmOQiE3G0HMblS83EQ-58" value="3" style="verticalLabelPosition=middle;verticalAlign=middle;html=1;shape=offPageConnector;rounded=0;size=0.49999999999999994;strokeWidth=2;labelPosition=center;align=center;" parent="1" vertex="1">
          <mxGeometry x="170" y="2140" width="60" height="60" as="geometry" />
        </mxCell>
        <mxCell id="7udmOQiE3G0HMblS83EQ-64" value="" style="edgeStyle=orthogonalEdgeStyle;rounded=0;orthogonalLoop=1;jettySize=auto;html=1;" parent="1" source="7udmOQiE3G0HMblS83EQ-60" target="-dill5MbkQolZMqiE5xy-34" edge="1">
          <mxGeometry relative="1" as="geometry" />
        </mxCell>
        <mxCell id="7udmOQiE3G0HMblS83EQ-60" value="2" style="verticalLabelPosition=middle;verticalAlign=middle;html=1;shape=offPageConnector;rounded=0;size=0.49999999999999994;strokeWidth=2;labelPosition=center;align=center;" parent="1" vertex="1">
          <mxGeometry x="1850" y="1440" width="60" height="60" as="geometry" />
        </mxCell>
        <mxCell id="7udmOQiE3G0HMblS83EQ-65" value="&lt;span style=&quot;font-size: 16px;&quot;&gt;end&lt;/span&gt;" style="strokeWidth=2;html=1;shape=mxgraph.flowchart.start_1;whiteSpace=wrap;fillColor=#dae8fc;strokeColor=#6c8ebf;" parent="1" vertex="1">
          <mxGeometry x="1110" y="1274" width="100" height="60" as="geometry" />
        </mxCell>
        <mxCell id="GMf_6AteKNeZDSb7Da4l-5" style="edgeStyle=orthogonalEdgeStyle;rounded=0;orthogonalLoop=1;jettySize=auto;html=1;exitX=0.5;exitY=1;exitDx=0;exitDy=0;entryX=0.5;entryY=0;entryDx=0;entryDy=0;entryPerimeter=0;strokeWidth=3;" parent="1" source="7udmOQiE3G0HMblS83EQ-43" target="7udmOQiE3G0HMblS83EQ-32" edge="1">
          <mxGeometry relative="1" as="geometry">
            <Array as="points">
              <mxPoint x="850" y="1020" />
              <mxPoint x="1160" y="1020" />
            </Array>
          </mxGeometry>
        </mxCell>
        <mxCell id="LnAWGriIQRCtSxXzHAF4-11" value="" style="edgeStyle=orthogonalEdgeStyle;rounded=0;orthogonalLoop=1;jettySize=auto;html=1;strokeWidth=3;" parent="1" source="LnAWGriIQRCtSxXzHAF4-3" target="LnAWGriIQRCtSxXzHAF4-5" edge="1">
          <mxGeometry relative="1" as="geometry" />
        </mxCell>
        <mxCell id="LnAWGriIQRCtSxXzHAF4-3" value="New member" style="rounded=1;whiteSpace=wrap;html=1;absoluteArcSize=1;arcSize=14;strokeWidth=2;fillColor=#fff2cc;strokeColor=#d6b656;" parent="1" vertex="1">
          <mxGeometry x="880" y="1385" width="100" height="100" as="geometry" />
        </mxCell>
        <mxCell id="LnAWGriIQRCtSxXzHAF4-14" value="" style="edgeStyle=orthogonalEdgeStyle;rounded=0;orthogonalLoop=1;jettySize=auto;html=1;strokeWidth=3;" parent="1" source="LnAWGriIQRCtSxXzHAF4-4" target="LnAWGriIQRCtSxXzHAF4-8" edge="1">
          <mxGeometry relative="1" as="geometry" />
        </mxCell>
        <mxCell id="LnAWGriIQRCtSxXzHAF4-4" value="Existing member" style="rounded=1;whiteSpace=wrap;html=1;absoluteArcSize=1;arcSize=14;strokeWidth=2;fillColor=#fff2cc;strokeColor=#d6b656;" parent="1" vertex="1">
          <mxGeometry x="880" y="1735" width="100" height="100" as="geometry" />
        </mxCell>
        <mxCell id="LnAWGriIQRCtSxXzHAF4-5" value="4" style="verticalLabelPosition=middle;verticalAlign=middle;html=1;shape=offPageConnector;rounded=0;size=0.5;strokeWidth=2;labelPosition=center;align=center;" parent="1" vertex="1">
          <mxGeometry x="900" y="1525" width="60" height="60" as="geometry" />
        </mxCell>
        <mxCell id="LnAWGriIQRCtSxXzHAF4-6" value="&lt;span style=&quot;font-size: 22px;&quot;&gt;O&lt;/span&gt;" style="strokeWidth=2;html=1;shape=mxgraph.flowchart.decision;whiteSpace=wrap;" parent="1" vertex="1">
          <mxGeometry x="760" y="1589" width="50" height="50" as="geometry" />
        </mxCell>
        <mxCell id="LnAWGriIQRCtSxXzHAF4-18" value="" style="edgeStyle=orthogonalEdgeStyle;rounded=0;orthogonalLoop=1;jettySize=auto;html=1;strokeWidth=3;" parent="1" source="LnAWGriIQRCtSxXzHAF4-7" target="LnAWGriIQRCtSxXzHAF4-17" edge="1">
          <mxGeometry relative="1" as="geometry" />
        </mxCell>
        <mxCell id="LnAWGriIQRCtSxXzHAF4-7" value="&lt;span style=&quot;font-size: 22px;&quot;&gt;O&lt;/span&gt;" style="strokeWidth=2;html=1;shape=mxgraph.flowchart.decision;whiteSpace=wrap;" parent="1" vertex="1">
          <mxGeometry x="1050" y="1589" width="50" height="50" as="geometry" />
        </mxCell>
        <mxCell id="LnAWGriIQRCtSxXzHAF4-8" value="5" style="verticalLabelPosition=middle;verticalAlign=middle;html=1;shape=offPageConnector;rounded=0;size=0.5;strokeWidth=2;labelPosition=center;align=center;" parent="1" vertex="1">
          <mxGeometry x="900" y="1875" width="60" height="60" as="geometry" />
        </mxCell>
        <mxCell id="LnAWGriIQRCtSxXzHAF4-10" style="edgeStyle=orthogonalEdgeStyle;rounded=0;orthogonalLoop=1;jettySize=auto;html=1;exitX=0.5;exitY=0;exitDx=0;exitDy=0;exitPerimeter=0;entryX=0;entryY=0.4;entryDx=0;entryDy=0;entryPerimeter=0;strokeWidth=3;" parent="1" source="LnAWGriIQRCtSxXzHAF4-6" target="LnAWGriIQRCtSxXzHAF4-3" edge="1">
          <mxGeometry relative="1" as="geometry" />
        </mxCell>
        <mxCell id="LnAWGriIQRCtSxXzHAF4-12" style="edgeStyle=orthogonalEdgeStyle;rounded=0;orthogonalLoop=1;jettySize=auto;html=1;exitX=1;exitY=0.5;exitDx=0;exitDy=0;entryX=0.5;entryY=0;entryDx=0;entryDy=0;entryPerimeter=0;strokeWidth=3;" parent="1" source="LnAWGriIQRCtSxXzHAF4-3" target="LnAWGriIQRCtSxXzHAF4-7" edge="1">
          <mxGeometry relative="1" as="geometry" />
        </mxCell>
        <mxCell id="LnAWGriIQRCtSxXzHAF4-13" style="edgeStyle=orthogonalEdgeStyle;rounded=0;orthogonalLoop=1;jettySize=auto;html=1;exitX=0.5;exitY=1;exitDx=0;exitDy=0;exitPerimeter=0;entryX=-0.008;entryY=0.604;entryDx=0;entryDy=0;entryPerimeter=0;strokeWidth=3;" parent="1" source="LnAWGriIQRCtSxXzHAF4-6" target="LnAWGriIQRCtSxXzHAF4-4" edge="1">
          <mxGeometry relative="1" as="geometry" />
        </mxCell>
        <mxCell id="LnAWGriIQRCtSxXzHAF4-15" style="edgeStyle=orthogonalEdgeStyle;rounded=0;orthogonalLoop=1;jettySize=auto;html=1;exitX=1;exitY=0.5;exitDx=0;exitDy=0;entryX=0.5;entryY=1;entryDx=0;entryDy=0;entryPerimeter=0;strokeWidth=3;" parent="1" source="LnAWGriIQRCtSxXzHAF4-4" target="LnAWGriIQRCtSxXzHAF4-7" edge="1">
          <mxGeometry relative="1" as="geometry" />
        </mxCell>
        <mxCell id="LnAWGriIQRCtSxXzHAF4-17" value="Print slip" style="shape=parallelogram;perimeter=parallelogramPerimeter;whiteSpace=wrap;html=1;fixedSize=1;strokeWidth=2;" parent="1" vertex="1">
          <mxGeometry x="1175" y="1564" width="150" height="100" as="geometry" />
        </mxCell>
        <mxCell id="CvKniltinrUZ1ZfXwwQX-5" value="" style="edgeStyle=orthogonalEdgeStyle;rounded=0;orthogonalLoop=1;jettySize=auto;html=1;strokeWidth=3;" edge="1" parent="1" source="CvKniltinrUZ1ZfXwwQX-1" target="CvKniltinrUZ1ZfXwwQX-3">
          <mxGeometry relative="1" as="geometry" />
        </mxCell>
        <mxCell id="CvKniltinrUZ1ZfXwwQX-1" value="&lt;span style=&quot;font-size: 16px;&quot;&gt;Transactions&lt;/span&gt;" style="rounded=1;whiteSpace=wrap;html=1;absoluteArcSize=1;arcSize=14;strokeWidth=2;fillColor=#fff2cc;strokeColor=#d6b656;" vertex="1" parent="1">
          <mxGeometry x="1720" y="690" width="100" height="100" as="geometry" />
        </mxCell>
        <mxCell id="CvKniltinrUZ1ZfXwwQX-3" value="&lt;div&gt;4&lt;/div&gt;" style="verticalLabelPosition=middle;verticalAlign=middle;html=1;shape=offPageConnector;rounded=0;size=0.5;strokeWidth=2;labelPosition=center;align=center;" vertex="1" parent="1">
          <mxGeometry x="1740" y="860" width="60" height="60" as="geometry" />
        </mxCell>
        <mxCell id="CvKniltinrUZ1ZfXwwQX-7" style="edgeStyle=orthogonalEdgeStyle;rounded=0;orthogonalLoop=1;jettySize=auto;html=1;exitX=0.5;exitY=1;exitDx=0;exitDy=0;entryX=0.5;entryY=0;entryDx=0;entryDy=0;entryPerimeter=0;strokeWidth=3;" edge="1" parent="1" source="7udmOQiE3G0HMblS83EQ-45" target="7udmOQiE3G0HMblS83EQ-32">
          <mxGeometry relative="1" as="geometry">
            <Array as="points">
              <mxPoint x="1400" y="1020" />
              <mxPoint x="1160" y="1020" />
            </Array>
          </mxGeometry>
        </mxCell>
        <mxCell id="CvKniltinrUZ1ZfXwwQX-9" style="edgeStyle=orthogonalEdgeStyle;rounded=0;orthogonalLoop=1;jettySize=auto;html=1;exitX=0.5;exitY=1;exitDx=0;exitDy=0;entryX=1;entryY=0.5;entryDx=0;entryDy=0;entryPerimeter=0;strokeWidth=3;" edge="1" parent="1" source="CvKniltinrUZ1ZfXwwQX-3" target="7udmOQiE3G0HMblS83EQ-32">
          <mxGeometry relative="1" as="geometry" />
        </mxCell>
        <mxCell id="CvKniltinrUZ1ZfXwwQX-12" value="" style="edgeStyle=orthogonalEdgeStyle;rounded=0;orthogonalLoop=1;jettySize=auto;html=1;strokeWidth=3;" edge="1" parent="1" source="CvKniltinrUZ1ZfXwwQX-10" target="CvKniltinrUZ1ZfXwwQX-11">
          <mxGeometry relative="1" as="geometry" />
        </mxCell>
        <mxCell id="CvKniltinrUZ1ZfXwwQX-10" value="4" style="verticalLabelPosition=middle;verticalAlign=middle;html=1;shape=offPageConnector;rounded=0;size=0.49999999999999994;strokeWidth=2;labelPosition=center;align=center;" vertex="1" parent="1">
          <mxGeometry x="1900" y="2140" width="60" height="60" as="geometry" />
        </mxCell>
        <mxCell id="CvKniltinrUZ1ZfXwwQX-14" value="" style="edgeStyle=orthogonalEdgeStyle;rounded=0;orthogonalLoop=1;jettySize=auto;html=1;strokeWidth=3;" edge="1" parent="1" source="CvKniltinrUZ1ZfXwwQX-11" target="CvKniltinrUZ1ZfXwwQX-13">
          <mxGeometry relative="1" as="geometry" />
        </mxCell>
        <mxCell id="CvKniltinrUZ1ZfXwwQX-11" value="Search, refresh, download list of borrowed books or returned books" style="rounded=1;whiteSpace=wrap;html=1;absoluteArcSize=1;arcSize=14;strokeWidth=2;fillColor=#fff2cc;strokeColor=#d6b656;" vertex="1" parent="1">
          <mxGeometry x="1880" y="2280" width="100" height="100" as="geometry" />
        </mxCell>
        <mxCell id="CvKniltinrUZ1ZfXwwQX-13" value="Print slip" style="shape=parallelogram;perimeter=parallelogramPerimeter;whiteSpace=wrap;html=1;fixedSize=1;strokeWidth=2;" vertex="1" parent="1">
          <mxGeometry x="1855" y="2478" width="150" height="100" as="geometry" />
        </mxCell>
      </root>
    </mxGraphModel>
  </diagram>
</mxfile>
